<?xml version="1.0" encoding="utf-8"?>
<!-- Generator: Adobe Illustrator 21.0.0, SVG Export Plug-In . SVG Version: 6.00 Build 0)  -->
<svg version="1.1" xmlns="http://www.w3.org/2000/svg" xmlns:xlink="http://www.w3.org/1999/xlink" x="0px" y="0px"
	 viewBox="0 0 500 500" style="enable-background:new 0 0 500 500;" xml:space="preserve">
<style type="text/css">
	.st0{fill:#FFFFFF;}
</style>
<g id="Layer_1">
</g>
<g id="Isolation_Mode">
	<g>
		<path class="st0" d="M38.3,255c0.1-41.3,0.1-82.6,0.2-123.9c33.1,0.1,66.3,0.1,100.8,0.2c-10.6-14.3-10.5-28.2-3.1-42.1
			c3.4-6.5,7.4-12.9,12-18.7c17.2-21.4,39.2-24.8,60.7-7.9c10.6,8.3,19.2,19.5,28.1,29.8c4.9,5.7,8.5,12.4,13.2,19.3
			c2.3-3.6,4.1-6.4,5.9-9.1c10.4-16,21.6-31.3,37.8-42c19.3-12.7,38.9-11.1,54.2,6.1c7.2,8.1,13.1,17.7,17.8,27.5
			c5.4,11.2,4.8,23-2.6,33.7c-0.7,1-0.9,2.2-1.6,3.8c33.8,0.1,66.8,0.1,99.8,0.2c-0.1,41.3-0.1,82.6-0.2,123.9c-8.7,0-17.3,0-26.7,0
			c-0.1,64.8-0.2,128.8-0.3,192.8c-123.7-0.2-246.5-0.4-370.1-0.7c0.1-64.6,0.2-128.6,0.3-192.8C55.3,255,46.8,255,38.3,255z
			 M205.3,255.4c-41.3-0.1-81.6-0.1-122.1-0.2C83.1,313.9,83,372,82.9,430.1c41,0.1,81.3,0.1,122.1,0.2
			C205.1,371.8,205.2,313.9,205.3,255.4z M416.3,430.8c0.1-58.9,0.2-116.9,0.3-174.9c-41.1-0.1-81.6-0.1-122.1-0.2
			c-0.1,58.6-0.2,116.6-0.3,174.9C335.1,430.7,375.5,430.8,416.3,430.8z M223.5,430.2c17.8,0,34.9,0.1,51.9,0.1
			c0.2-94,0.3-187.4,0.5-280.6c-17.6,0-34.6-0.1-51.9-0.1C223.8,243.3,223.6,336.4,223.5,430.2z M205.5,149.6
			c-50.1-0.1-99.3-0.2-148.7-0.3c-0.1,29.3-0.1,58-0.2,86.9c49.9,0.1,99.3,0.2,148.7,0.3C205.4,207.3,205.4,178.7,205.5,149.6z
			 M294.4,236.8c50.2,0.1,99.3,0.2,148.7,0.3c0.1-29.2,0.1-58,0.2-86.8c-49.9-0.1-99.2-0.2-148.7-0.3
			C294.5,179.2,294.5,207.7,294.4,236.8z M259.9,131.4c21.1,0,40.8,0.4,60.6,0c12.1-0.3,23.1-5.2,29.3-15.6
			c5.5-9.2-0.8-17.9-5.6-25.9c-1.3-2.1-2.6-4.2-4.1-6.2c-13.1-16.8-26.9-18.1-42.7-3.8C281.6,94.1,270.4,111.6,259.9,131.4z
			 M240.6,131.4c-4.5-7.7-7.4-14.6-12-20.2c-10.4-12.6-20.8-25.5-32.9-36.4c-8.8-8-19.3-7.5-26.9,0.4c-7.7,8.2-13.9,18.2-19,28.2
			c-1.8,3.6-0.4,11.9,2.5,14.1c7.6,5.7,16.6,12.2,25.5,13.1C197.9,132.6,218.4,131.4,240.6,131.4z"/>
	</g>
</g>
</svg>
